<svg width="40" height="40" viewBox="0 0 40 40" fill="none" xmlns="http://www.w3.org/2000/svg">
<rect width="40" height="40" fill="#E5E5E5"/>
<g clip-path="url(#clip0_0_1)">
<rect x="-42" y="-426" width="414" height="896" rx="40" fill="white"/>
<g filter="url(#filter0_d_0_1)">
<rect x="-14" y="-13" width="359" height="65" rx="15" fill="white"/>
</g>
<circle cx="20" cy="20" r="20" fill="#F5F5F5"/>
<g clip-path="url(#clip1_0_1)">
<path fill-rule="evenodd" clip-rule="evenodd" d="M26.3043 28.3575L26.7523 28.3451L27.1956 28.3126L27.628 28.2568L28.059 28.1808L28.4775 28.0847L28.8898 27.9669L29.2943 27.8305L29.6896 27.6755L30.0756 27.4988L30.4507 27.3097L30.8134 27.0989L31.1668 26.8726L31.5078 26.6292L31.8349 26.3719L32.1511 26.1006L32.4534 25.8108L32.7432 25.5085L33.0145 25.1923L33.2718 24.8653L33.5151 24.5242L33.7415 24.1708L33.9523 23.8081L34.1414 23.433L34.3181 23.047L34.4731 22.6518L34.6095 22.2472L34.7273 21.8349L34.8234 21.4164L34.8994 20.9855L34.9552 20.553L34.9877 20.1097L35.0001 19.6617L34.9877 19.2168L34.9552 18.7782L34.8994 18.3457L34.8234 17.921L34.7273 17.5025L34.6095 17.0917L34.4731 16.6887L34.3181 16.2965L34.1414 15.9121L33.9523 15.537L33.7415 15.1774L33.5151 14.824L33.2718 14.483L33.0145 14.159L32.7432 13.8428L32.4534 13.5405L32.1511 13.2538L31.8349 12.9825L31.5078 12.7237L31.1668 12.4819L30.8134 12.2555L30.4507 12.0478L30.0756 11.8572L29.6896 11.682L29.2943 11.527L28.8898 11.3891L28.4775 11.2728L28.059 11.1752L27.628 11.0992L27.1956 11.0434L26.7523 11.0124L26.3043 11L25.8594 11.0124L25.4177 11.0434L24.9852 11.0992L24.5574 11.1752L24.1389 11.2728L23.7265 11.3891L23.3251 11.527L22.9298 11.682L22.5454 11.8572L22.1749 12.0478L21.8107 12.2555L21.4604 12.4819L21.1209 12.7237L20.7923 12.9825L20.4792 13.2538L20.1785 13.5405L19.8902 13.8428L19.6189 14.159L19.3616 14.483L19.1213 14.824L18.895 15.1774L18.6873 15.537L18.4951 15.9121L18.3215 16.2965L18.1665 16.6887L18.0316 17.0917L17.9154 17.5025L17.8177 17.921L17.7418 18.3457L17.686 18.7782L17.655 19.2168L17.6426 19.6617L17.655 20.1097L17.686 20.553L17.7418 20.9855L17.8177 21.4164L17.9154 21.8349L18.0316 22.2472L18.1665 22.6518L18.3215 23.047L18.4951 23.433L18.6873 23.8081L18.895 24.1708L19.1213 24.5242L19.3616 24.8653L19.6189 25.1923L19.8902 25.5085L20.1785 25.8108L20.4792 26.1006L20.7923 26.3719L21.1209 26.6292L21.4604 26.8726L21.8107 27.0989L22.1749 27.3097L22.5454 27.4988L22.9298 27.6755L23.3251 27.8305L23.7265 27.9669L24.1389 28.0847L24.5574 28.1808L24.9852 28.2568L25.4177 28.3126L25.8594 28.3451L26.3043 28.3575Z" fill="#FCB331"/>
<path fill-rule="evenodd" clip-rule="evenodd" d="M14.6943 28.3575L15.1391 28.3451L15.5809 28.3126L16.0149 28.2568L16.4427 28.1808L16.8612 28.0847L17.2736 27.9669L17.675 27.8305L18.0703 27.6755L18.4531 27.4988L18.8252 27.3097L19.1879 27.0989L19.5397 26.8726L19.8792 26.6292L20.2063 26.3719L20.5209 26.1006L20.8216 25.8108L21.1084 25.5085L21.3812 25.1923L21.6385 24.8653L21.8788 24.5242L22.1035 24.1708L22.3112 23.8081L22.505 23.433L22.6771 23.047L22.8336 22.6518L22.9669 22.2472L23.0847 21.8349L23.1808 21.4164L23.2568 20.9855L23.3126 20.553L23.3451 20.1097L23.3575 19.6617L23.3451 19.2168L23.3126 18.7782L23.2568 18.3457L23.1808 17.921L23.0847 17.5025L22.9669 17.0917L22.8336 16.6887L22.6771 16.2965L22.505 15.9121L22.3112 15.537L22.1035 15.1774L21.8788 14.824L21.6385 14.483L21.3812 14.159L21.1084 13.8428L20.8216 13.5405L20.5209 13.2538L20.2063 12.9825L19.8792 12.7237L19.5397 12.4819L19.1879 12.2555L18.8252 12.0478L18.4531 11.8572L18.0703 11.682L17.675 11.527L17.2736 11.3891L16.8612 11.2728L16.4427 11.1752L16.0149 11.0992L15.5809 11.0434L15.1391 11.0124L14.6943 11L14.2463 11.0124L13.8045 11.0434L13.3721 11.0992L12.9412 11.1752L12.5226 11.2728L12.1103 11.3891L11.7058 11.527L11.3105 11.682L10.9245 11.8572L10.5494 12.0478L10.1867 12.2555L9.83174 12.4819L9.49228 12.7237L9.16521 12.9825L8.849 13.2538L8.54674 13.5405L8.25688 13.8428L7.98407 14.159L7.72676 14.483L7.48495 14.824L7.25865 15.1774L7.04784 15.537L6.85718 15.9121L6.68202 16.2965L6.52702 16.6887L6.38906 17.0917L6.27281 17.5025L6.17516 17.921L6.0992 18.3457L6.0434 18.7782L6.0124 19.2168L6 19.6617L6.0124 20.1097L6.0434 20.553L6.0992 20.9855L6.17516 21.4164L6.27281 21.8349L6.38906 22.2472L6.52702 22.6518L6.68202 23.047L6.85718 23.433L7.04784 23.8081L7.25865 24.1708L7.48495 24.5242L7.72676 24.8653L7.98407 25.1923L8.25688 25.5085L8.54674 25.8108L8.849 26.1006L9.16521 26.3719L9.49228 26.6292L9.83174 26.8726L10.1867 27.0989L10.5494 27.3097L10.9245 27.4988L11.3105 27.6755L11.7058 27.8305L12.1103 27.9669L12.5226 28.0847L12.9412 28.1808L13.3721 28.2568L13.8045 28.3126L14.2463 28.3451L14.6943 28.3575Z" fill="#ED1B2E"/>
<path fill-rule="evenodd" clip-rule="evenodd" d="M19.4844 14.328H24.0958V13.8568H19.8827L19.4844 14.328Z" fill="#FCB331"/>
<path fill-rule="evenodd" clip-rule="evenodd" d="M18.793 15.3774H24.0957V14.9046H19.072L18.793 15.3774Z" fill="#FCB331"/>
<path fill-rule="evenodd" clip-rule="evenodd" d="M18.2783 16.4221H24.0957V15.9509H18.4829L18.2783 16.4221Z" fill="#FCB331"/>
<path fill-rule="evenodd" clip-rule="evenodd" d="M17.9229 17.4699H24.0952V16.9987H18.0701L17.9229 17.4699Z" fill="#FCB331"/>
<path fill-rule="evenodd" clip-rule="evenodd" d="M18.1297 22.534H24.1098V22.0628H17.9824L18.1297 22.534Z" fill="#FCB331"/>
<path fill-rule="evenodd" clip-rule="evenodd" d="M18.5717 23.5818H24.11V23.1106H18.3516L18.5717 23.5818Z" fill="#FCB331"/>
<path fill-rule="evenodd" clip-rule="evenodd" d="M19.1906 24.6281H24.1089V24.1553H18.8945L19.1906 24.6281Z" fill="#FCB331"/>
<path fill-rule="evenodd" clip-rule="evenodd" d="M20.0467 25.6759H24.1094V25.2016H19.6328L20.0467 25.6759Z" fill="#FCB331"/>
<path fill-rule="evenodd" clip-rule="evenodd" d="M17.7148 18.5147H24.0949V18.0435H17.8063L17.7148 18.5147Z" fill="#FCB331"/>
<path fill-rule="evenodd" clip-rule="evenodd" d="M21.6025 21.4892H24.0361V21.018H21.6909L21.6025 21.4892Z" fill="#FCB331"/>
<path fill-rule="evenodd" clip-rule="evenodd" d="M21.7969 20.4445H24.0367V19.9702H21.8852L21.7969 20.4445Z" fill="#FCB331"/>
<path fill-rule="evenodd" clip-rule="evenodd" d="M17.5537 19.9702H18.1861V20.4445H17.5832L17.5537 19.9702Z" fill="#FCB331"/>
<path fill-rule="evenodd" clip-rule="evenodd" d="M16.3744 19.3982L16.3341 19.3967L16.2923 19.3905L16.2551 19.3843L16.2163 19.3781L16.1822 19.3719L16.1434 19.3672L16.1047 19.361L16.0644 19.3548L16.0241 19.3486L15.976 19.3455L15.9233 19.344L15.8691 19.3409H15.8071L15.7389 19.344L15.6629 19.3486L15.5792 19.3548L15.5203 19.3641L15.4645 19.3719L15.4149 19.3905L15.37 19.4075L15.3297 19.4277L15.2909 19.4509L15.263 19.4804L15.2367 19.5067L15.2181 19.5393L15.2041 19.5718L15.1979 19.6075V19.6416L15.2072 19.6803L15.2181 19.7175L15.2413 19.7563L15.2708 19.7935L15.3297 19.8493L15.3994 19.8942L15.4816 19.9314L15.5699 19.964L15.6629 19.9934L15.7606 20.026L15.8567 20.0601L15.9497 20.0988L16.038 20.1484L16.1202 20.2104L16.193 20.2833L16.2551 20.3732L16.3016 20.4848L16.331 20.6165L16.3419 20.7747L16.331 20.9591L16.3109 21.0971L16.2752 21.2164L16.2287 21.328L16.1698 21.4241L16.1031 21.5094L16.0256 21.5822L15.945 21.6473L15.8536 21.7031L15.7606 21.7465L15.6629 21.7853L15.5637 21.8147L15.4614 21.838L15.3622 21.855L15.2646 21.8643L15.1685 21.869L15.0786 21.8721H14.9515L14.8352 21.869H14.7329L14.6352 21.8674L14.5484 21.8643L14.4694 21.8581L14.3981 21.8519L14.3314 21.8426L14.2694 21.838L14.2136 21.8256L14.1594 21.8163L14.1082 21.8023L14.0586 21.7899L14.0121 21.7729L13.9656 21.7558L13.916 21.7372L14.0478 21.0909L14.0741 21.0971L14.1067 21.1048L14.147 21.1172L14.1966 21.1296L14.2493 21.1405L14.3082 21.1529L14.3717 21.1668L14.443 21.1792L14.5159 21.1901L14.5918 21.2025L14.6709 21.2118L14.753 21.2195L14.8383 21.2226L14.922 21.2257H15.0073L15.0925 21.2226L15.1778 21.2056L15.2444 21.1823L15.2971 21.1498L15.339 21.1079L15.3684 21.0676L15.3917 21.0211L15.4056 20.9746L15.418 20.9297L15.4227 20.8444L15.3963 20.7716L15.3467 20.7127L15.2739 20.663L15.1855 20.6196L15.0832 20.5762L14.9701 20.5344L14.8554 20.4879L14.7391 20.4352L14.6275 20.3732L14.5252 20.2972L14.4306 20.2073L14.3578 20.0957L14.3051 19.964L14.2787 19.8059L14.2818 19.6183L14.2958 19.5036L14.3175 19.3967L14.3454 19.2959L14.381 19.2029L14.4275 19.1145L14.4802 19.0386L14.5422 18.9657L14.6151 18.9006L14.7003 18.8464L14.7933 18.7983L14.8988 18.7549L15.0166 18.7224L15.1483 18.696L15.2909 18.6759L15.449 18.6635L15.6226 18.6619H15.7311L15.8303 18.6635L15.9218 18.6666L16.0024 18.6697L16.0768 18.6759L16.1434 18.6821L16.2023 18.6883L16.2551 18.6929L16.3047 18.6991L16.345 18.7084L16.3837 18.7146L16.4194 18.7193L16.4473 18.7255L16.4736 18.7286L16.5 18.7348L16.5248 18.7379L16.3744 19.3982Z" fill="white"/>
<path d="M16.3744 19.3982L16.3341 19.3967L16.2923 19.3905L16.2551 19.3843L16.2163 19.3781L16.1822 19.3719L16.1434 19.3672L16.1047 19.361L16.0644 19.3548L16.0241 19.3486L15.976 19.3455L15.9233 19.344L15.8691 19.3409H15.8071L15.7389 19.344L15.6629 19.3486L15.5792 19.3548L15.5203 19.3641L15.4645 19.3719L15.4149 19.3905L15.37 19.4075L15.3297 19.4277L15.2909 19.4509L15.263 19.4804L15.2367 19.5067L15.2181 19.5393L15.2041 19.5718L15.1979 19.6075V19.6416L15.2072 19.6803L15.2181 19.7175L15.2413 19.7563L15.2708 19.7935L15.3297 19.8493L15.3994 19.8942L15.4816 19.9314L15.5699 19.964L15.6629 19.9934L15.7606 20.026L15.8567 20.0601L15.9497 20.0988L16.038 20.1484L16.1202 20.2104L16.193 20.2833L16.2551 20.3732L16.3016 20.4848L16.331 20.6165L16.3419 20.7747L16.331 20.9591L16.3109 21.0971L16.2752 21.2164L16.2287 21.328L16.1698 21.4241L16.1031 21.5094L16.0256 21.5822L15.945 21.6473L15.8536 21.7031L15.7606 21.7465L15.6629 21.7853L15.5637 21.8147L15.4614 21.838L15.3622 21.855L15.2646 21.8643L15.1685 21.869L15.0786 21.8721H14.9515L14.8352 21.869H14.7329L14.6352 21.8674L14.5484 21.8643L14.4694 21.8581L14.3981 21.8519L14.3314 21.8426L14.2694 21.838L14.2136 21.8256L14.1594 21.8163L14.1082 21.8023L14.0586 21.7899L14.0121 21.7729L13.9656 21.7558L13.916 21.7372L14.0478 21.0909L14.0741 21.0971L14.1067 21.1048L14.147 21.1172L14.1966 21.1296L14.2493 21.1405L14.3082 21.1529L14.3717 21.1668L14.443 21.1792L14.5159 21.1901L14.5918 21.2025L14.6709 21.2118L14.753 21.2195L14.8383 21.2226L14.922 21.2257H15.0073L15.0925 21.2226L15.1778 21.2056L15.2444 21.1823L15.2971 21.1498L15.339 21.1079L15.3684 21.0676L15.3917 21.0211L15.4056 20.9746L15.418 20.9297L15.4227 20.8444L15.3963 20.7716L15.3467 20.7127L15.2739 20.663L15.1855 20.6196L15.0832 20.5762L14.9701 20.5344L14.8554 20.4879L14.7391 20.4352L14.6275 20.3732L14.5252 20.2972L14.4306 20.2073L14.3578 20.0957L14.3051 19.964L14.2787 19.8059L14.2818 19.6183L14.2958 19.5036L14.3175 19.3967L14.3454 19.2959L14.381 19.2029L14.4275 19.1145L14.4802 19.0386L14.5422 18.9657L14.6151 18.9006L14.7003 18.8464L14.7933 18.7983L14.8988 18.7549L15.0166 18.7224L15.1483 18.696L15.2909 18.6759L15.449 18.6635L15.6226 18.6619H15.7311L15.8303 18.6635L15.9218 18.6666L16.0024 18.6697L16.0768 18.6759L16.1434 18.6821L16.2023 18.6883L16.2551 18.6929L16.3047 18.6991L16.345 18.7084L16.3837 18.7146L16.4194 18.7193L16.4473 18.7255L16.4736 18.7286L16.5 18.7348L16.5248 18.7379L16.3744 19.3982Z" stroke="white" stroke-width="0.216" stroke-miterlimit="2.6131"/>
<path fill-rule="evenodd" clip-rule="evenodd" d="M17.0688 18.014H17.8795L17.7601 18.7224H18.2484L18.143 19.3842L17.6284 19.3703L17.3463 21.0025L17.3432 21.0614L17.3587 21.111L17.3881 21.1498L17.4253 21.1823L17.478 21.2025L17.5369 21.2195L17.602 21.2319L17.6718 21.2381L17.7353 21.235L17.7942 21.2288L17.8469 21.2195L17.8934 21.2087L17.9322 21.1963L17.9585 21.187L17.9756 21.1823L17.9818 21.1792L17.8795 21.7233L17.8593 21.7372L17.8392 21.7496L17.8175 21.762L17.7973 21.7729L17.7772 21.7822L17.7539 21.7899L17.7276 21.7992L17.7012 21.8085L17.6718 21.8163L17.6423 21.8225L17.6067 21.8287L17.5726 21.8349L17.5338 21.8411L17.4904 21.8457L17.4439 21.8519L17.3928 21.8581H17.1711L17.0533 21.8488L16.951 21.838L16.858 21.8194L16.7789 21.7992L16.7107 21.7729L16.6565 21.7434L16.6053 21.7093L16.5681 21.6706L16.5387 21.6303L16.5185 21.5791L16.503 21.5295L16.4953 21.4737L16.4922 21.4133V21.3482L16.4999 21.2815L16.5092 21.2087L17.0688 18.014Z" fill="white"/>
<path d="M17.0688 18.014H17.8795L17.7601 18.7224H18.2484L18.143 19.3842L17.6284 19.3703L17.3463 21.0025L17.3432 21.0614L17.3587 21.111L17.3881 21.1498L17.4253 21.1823L17.478 21.2025L17.5369 21.2195L17.602 21.2319L17.6718 21.2381L17.7353 21.235L17.7942 21.2288L17.8469 21.2195L17.8934 21.2087L17.9322 21.1963L17.9585 21.187L17.9756 21.1823L17.9818 21.1792L17.8795 21.7233L17.8593 21.7372L17.8392 21.7496L17.8175 21.762L17.7973 21.7729L17.7772 21.7822L17.7539 21.7899L17.7276 21.7992L17.7012 21.8085L17.6718 21.8163L17.6423 21.8225L17.6067 21.8287L17.5726 21.8349L17.5338 21.8411L17.4904 21.8457L17.4439 21.8519L17.3928 21.8581H17.1711L17.0533 21.8488L16.951 21.838L16.858 21.8194L16.7789 21.7992L16.7107 21.7729L16.6565 21.7434L16.6053 21.7093L16.5681 21.6706L16.5387 21.6303L16.5185 21.5791L16.503 21.5295L16.4953 21.4737L16.4922 21.4133V21.3482L16.4999 21.2815L16.5092 21.2087L17.0688 18.014Z" stroke="white" stroke-width="0.216" stroke-miterlimit="2.6131"/>
<path fill-rule="evenodd" clip-rule="evenodd" d="M18.8951 20.4879L18.8873 20.5375L18.8842 20.5902L18.8904 20.646L18.9013 20.7018L18.9214 20.7576L18.9447 20.8103L18.9773 20.8661L19.0129 20.9157L19.0532 20.9653L19.0982 21.0087L19.1447 21.0537L19.1974 21.0878L19.2501 21.1203L19.309 21.1467L19.3663 21.1668L19.4252 21.1792L19.5012 21.1901L19.5756 21.1994L19.6515 21.2087L19.7275 21.2133L19.8034 21.2164H19.8825L19.9584 21.2133L20.0375 21.2087L20.1165 21.1963L20.1956 21.1823L20.2777 21.1637L20.3568 21.1374L20.439 21.1048L20.5227 21.0707L20.6048 21.0242L20.6901 20.9746L20.5738 21.6938L20.5258 21.7171L20.4793 21.7403L20.4328 21.7589L20.3894 21.776L20.3444 21.7899L20.2979 21.8054L20.2514 21.8163L20.2018 21.8256L20.1491 21.8349L20.0902 21.8411L20.0282 21.8457L19.9615 21.8519L19.8856 21.855H19.8065L19.7151 21.8581H19.619L19.4748 21.855L19.3291 21.8411L19.1819 21.8194L19.0362 21.7853L18.892 21.7403L18.7556 21.6845L18.6238 21.6117L18.4998 21.5264L18.3867 21.4272L18.2875 21.3079L18.2022 21.173L18.1309 21.018L18.0813 20.8444L18.0503 20.6491L18.041 20.4321L18.055 20.1918L18.0674 20.0988L18.0844 19.9903L18.1077 19.8756L18.1402 19.7532L18.1836 19.6276L18.2363 19.5021L18.3045 19.3719L18.3867 19.2494L18.4797 19.1331L18.5944 19.0215L18.723 18.9223L18.8687 18.834L19.0393 18.7611L19.2299 18.7084L19.4407 18.6728L19.6779 18.6619L19.791 18.6635L19.9119 18.6759L20.0313 18.696L20.1522 18.7255L20.2684 18.7689L20.3832 18.8216L20.4886 18.8929L20.5847 18.975L20.673 19.0742L20.7459 19.1905L20.8048 19.3253L20.8451 19.4804L20.8683 19.6571L20.8714 19.8555L20.8513 20.0787L20.8079 20.3236L20.7924 20.5018H18.6579L18.7928 19.9252H20.0747L20.0809 19.8524L20.0778 19.7826L20.0731 19.7175L20.0607 19.6602L20.0406 19.6044L20.0204 19.5548L19.991 19.5098L19.9615 19.4695L19.9259 19.4339L19.8887 19.4044L19.8437 19.3781L19.8003 19.3548L19.7538 19.3378L19.7073 19.3253L19.6562 19.3176L19.6035 19.3114L19.5492 19.3145L19.4965 19.3222L19.4454 19.3347L19.3958 19.3517L19.3462 19.375L19.3028 19.4013L19.2594 19.4339L19.2206 19.4695L19.1819 19.5098L19.1478 19.5548L19.1152 19.6013L19.0889 19.6509L19.0625 19.7036L19.0424 19.7625L19.0238 19.8198L19.0129 19.8818L18.8951 20.4879Z" fill="white"/>
<path d="M18.8951 20.4879L18.8873 20.5375L18.8842 20.5902L18.8904 20.646L18.9013 20.7018L18.9214 20.7576L18.9447 20.8103L18.9773 20.8661L19.0129 20.9157L19.0532 20.9653L19.0982 21.0087L19.1447 21.0537L19.1974 21.0878L19.2501 21.1203L19.309 21.1467L19.3663 21.1668L19.4252 21.1792L19.5012 21.1901L19.5756 21.1994L19.6515 21.2087L19.7275 21.2133L19.8034 21.2164H19.8825L19.9584 21.2133L20.0375 21.2087L20.1165 21.1963L20.1956 21.1823L20.2777 21.1637L20.3568 21.1374L20.439 21.1048L20.5227 21.0707L20.6048 21.0242L20.6901 20.9746L20.5738 21.6938L20.5258 21.7171L20.4793 21.7403L20.4328 21.7589L20.3894 21.776L20.3444 21.7899L20.2979 21.8054L20.2514 21.8163L20.2018 21.8256L20.1491 21.8349L20.0902 21.8411L20.0282 21.8457L19.9615 21.8519L19.8856 21.855H19.8065L19.7151 21.8581H19.619L19.4748 21.855L19.3291 21.8411L19.1819 21.8194L19.0362 21.7853L18.892 21.7403L18.7556 21.6845L18.6238 21.6117L18.4998 21.5264L18.3867 21.4272L18.2875 21.3079L18.2022 21.173L18.1309 21.018L18.0813 20.8444L18.0503 20.6491L18.041 20.4321L18.055 20.1918L18.0674 20.0988L18.0844 19.9903L18.1077 19.8756L18.1402 19.7532L18.1836 19.6276L18.2363 19.5021L18.3045 19.3719L18.3867 19.2494L18.4797 19.1331L18.5944 19.0215L18.723 18.9223L18.8687 18.834L19.0393 18.7611L19.2299 18.7084L19.4407 18.6728L19.6779 18.6619L19.791 18.6635L19.9119 18.6759L20.0313 18.696L20.1522 18.7255L20.2684 18.7689L20.3832 18.8216L20.4886 18.8929L20.5847 18.975L20.673 19.0742L20.7459 19.1905L20.8048 19.3254L20.8451 19.4804L20.8683 19.6571L20.8714 19.8555L20.8513 20.0787L20.8079 20.3236L20.7924 20.5018H18.6579L18.7928 19.9252H20.0747L20.0809 19.8524L20.0778 19.7826L20.0731 19.7175L20.0607 19.6602L20.0406 19.6044L20.0204 19.5548L19.991 19.5098L19.9615 19.4695L19.9259 19.4339L19.8887 19.4044L19.8437 19.3781L19.8003 19.3548L19.7538 19.3378L19.7073 19.3254L19.6562 19.3176L19.6035 19.3114L19.5492 19.3145L19.4965 19.3222L19.4454 19.3347L19.3958 19.3517L19.3462 19.375L19.3028 19.4013L19.2594 19.4339L19.2206 19.4695L19.1819 19.5098L19.1478 19.5548L19.1152 19.6013L19.0889 19.6509L19.0625 19.7036L19.0424 19.7625L19.0238 19.8198L19.0129 19.8818L18.8951 20.4879Z" stroke="white" stroke-width="0.216" stroke-miterlimit="2.6131"/>
<path fill-rule="evenodd" clip-rule="evenodd" d="M25.8776 18.8991L25.8388 18.8774L25.8016 18.8603L25.7598 18.8402L25.7164 18.82L25.673 18.8014L25.6218 18.7844L25.5722 18.7673L25.5195 18.7487L25.4637 18.7348L25.4095 18.7224L25.3475 18.7115L25.2855 18.7022L25.2188 18.696L25.1506 18.6898H25.0809H25.008H24.9351L24.8576 18.696L24.7786 18.7053L24.698 18.7193L24.6158 18.7425L24.5337 18.7751L24.4515 18.8169L24.3694 18.8696L24.2903 18.9332L24.2144 19.0091L24.1415 19.1037L24.0702 19.2122L24.0067 19.3409L23.9447 19.4866L23.8889 19.6509L23.8424 19.8384L23.8253 19.9438L23.8129 20.0461L23.8067 20.1484L23.8098 20.2476L23.8191 20.3468L23.8393 20.4414L23.8656 20.5282L23.8982 20.6165L23.9416 20.6956L23.9943 20.7716L24.0563 20.8398L24.126 20.9002L24.2051 20.9529L24.2965 20.9979L24.3957 21.0351L24.5073 21.0614L24.5445 21.0707L24.5895 21.08L24.6422 21.0847L24.6995 21.0909L24.7646 21.0971H24.8313H24.9057L24.9785 21.0909L25.0545 21.0816L25.1305 21.0676L25.2033 21.0475L25.2777 21.0242L25.3506 20.9917L25.4172 20.9529L25.4792 20.9064L25.5381 20.8537L25.4064 21.6349L25.3878 21.6504L25.3707 21.6675L25.3475 21.6876L25.3211 21.7062L25.2886 21.7295L25.2483 21.7496L25.2002 21.7698L25.1475 21.7884L25.0809 21.8085L25.0049 21.8225L24.9165 21.8349L24.8142 21.8457L24.6995 21.8519L24.5678 21.855L24.419 21.8519L24.2547 21.8426L24.1214 21.8287L23.9865 21.7992L23.8517 21.7558L23.7168 21.6969L23.5881 21.6272L23.4641 21.5388L23.3479 21.4365L23.2394 21.3187L23.1433 21.187L23.0611 21.0413L22.9914 20.877L22.9387 20.6987L22.903 20.5018L22.8906 20.2941L22.8968 20.0663L22.9294 19.8229L22.9526 19.7036L22.979 19.5858L23.0084 19.4726L23.0379 19.3641L23.0704 19.2618L23.1076 19.1595L23.1464 19.0618L23.1867 18.9719L23.2301 18.8805L23.275 18.7952L23.3246 18.7146L23.3773 18.6371L23.43 18.5643L23.4889 18.4945L23.5463 18.4294L23.6083 18.369L23.675 18.3101L23.7432 18.2543L23.8129 18.2047L23.8858 18.1582L23.9648 18.1132L24.0439 18.076L24.126 18.0404L24.2113 18.0078L24.3027 17.9784L24.3926 17.9551L24.4872 17.9349L24.5864 17.9179L24.6856 17.9024L24.791 17.8915L24.8964 17.8853L25.008 17.8822L25.101 17.8853L25.1925 17.8915L25.2793 17.8993L25.3676 17.9117L25.4498 17.9241L25.5288 17.9411L25.6048 17.9551L25.6745 17.9737L25.7427 17.9908L25.8016 18.0078L25.8574 18.0264L25.9039 18.0435L25.9442 18.0574L25.9799 18.0698L26.0062 18.0822L26.0233 18.0869L25.8776 18.8991Z" fill="white"/>
<path d="M25.8776 18.8991L25.8388 18.8774L25.8016 18.8603L25.7598 18.8402L25.7164 18.82L25.673 18.8014L25.6218 18.7844L25.5722 18.7673L25.5195 18.7487L25.4637 18.7348L25.4095 18.7224L25.3475 18.7115L25.2855 18.7022L25.2188 18.696L25.1506 18.6898H25.0809H25.008H24.9351L24.8576 18.696L24.7786 18.7053L24.698 18.7193L24.6158 18.7425L24.5337 18.7751L24.4515 18.8169L24.3694 18.8696L24.2903 18.9332L24.2144 19.0091L24.1415 19.1037L24.0702 19.2122L24.0067 19.3409L23.9447 19.4866L23.8889 19.6509L23.8424 19.8384L23.8253 19.9438L23.8129 20.0461L23.8067 20.1484L23.8098 20.2476L23.8191 20.3468L23.8393 20.4414L23.8656 20.5282L23.8982 20.6165L23.9416 20.6956L23.9943 20.7716L24.0563 20.8398L24.126 20.9002L24.2051 20.9529L24.2965 20.9979L24.3957 21.0351L24.5073 21.0614L24.5445 21.0707L24.5895 21.08L24.6422 21.0847L24.6995 21.0909L24.7646 21.0971H24.8313H24.9057L24.9785 21.0909L25.0545 21.0816L25.1305 21.0676L25.2033 21.0475L25.2777 21.0242L25.3506 20.9917L25.4172 20.9529L25.4792 20.9064L25.5381 20.8537L25.4064 21.6349L25.3878 21.6504L25.3707 21.6675L25.3475 21.6876L25.3211 21.7062L25.2886 21.7295L25.2483 21.7496L25.2002 21.7698L25.1475 21.7884L25.0809 21.8085L25.0049 21.8225L24.9165 21.8349L24.8142 21.8457L24.6995 21.8519L24.5678 21.855L24.419 21.8519L24.2547 21.8426L24.1214 21.8287L23.9865 21.7992L23.8517 21.7558L23.7168 21.6969L23.5881 21.6272L23.4641 21.5388L23.3479 21.4365L23.2394 21.3187L23.1433 21.187L23.0611 21.0413L22.9914 20.877L22.9387 20.6987L22.903 20.5018L22.8906 20.2941L22.8968 20.0663L22.9294 19.8229L22.9526 19.7036L22.979 19.5858L23.0084 19.4726L23.0379 19.3641L23.0704 19.2618L23.1076 19.1595L23.1464 19.0618L23.1867 18.9719L23.2301 18.8805L23.275 18.7952L23.3246 18.7146L23.3773 18.6371L23.43 18.5643L23.4889 18.4945L23.5463 18.4294L23.6083 18.369L23.675 18.3101L23.7432 18.2543L23.8129 18.2047L23.8858 18.1582L23.9648 18.1132L24.0439 18.076L24.126 18.0404L24.2113 18.0078L24.3027 17.9784L24.3926 17.9551L24.4872 17.9349L24.5864 17.9179L24.6856 17.9024L24.791 17.8915L24.8964 17.8853L25.008 17.8822L25.101 17.8853L25.1925 17.8915L25.2793 17.8993L25.3676 17.9117L25.4498 17.9241L25.5288 17.9411L25.6048 17.9551L25.6745 17.9737L25.7427 17.9908L25.8016 18.0078L25.8574 18.0264L25.9039 18.0435L25.9442 18.0574L25.9799 18.0698L26.0062 18.0822L26.0233 18.0869L25.8776 18.8991Z" stroke="white" stroke-width="0.216" stroke-miterlimit="2.6131"/>
<path fill-rule="evenodd" clip-rule="evenodd" d="M33.0843 21.8581H32.2737L32.3326 21.5326V21.5032L32.2861 21.5621L32.2365 21.6148L32.1869 21.6613L32.1342 21.7031L32.0815 21.7403L32.0288 21.7729L31.9761 21.7992L31.9203 21.8256L31.8645 21.8457L31.8086 21.8612L31.7528 21.8752L31.6939 21.8845L31.6366 21.8938L31.5808 21.8984L31.5219 21.9015H31.463L31.3111 21.8907L31.17 21.8581L31.0414 21.8085L30.9251 21.7403L30.8197 21.6566L30.7252 21.5559L30.643 21.4474L30.5733 21.3249L30.5143 21.1932L30.4678 21.0552L30.4353 20.9126L30.412 20.7638L30.4043 20.6134L30.4058 20.4615L30.4213 20.3127L30.4477 20.1624L30.4911 19.9903L30.5438 19.826L30.6058 19.6772L30.6787 19.5362L30.7546 19.4044L30.843 19.2881L30.9329 19.1827L31.0305 19.0851L31.1328 19.0014L31.2413 18.927L31.3514 18.8634L31.463 18.8138L31.5808 18.772L31.697 18.7456L31.8148 18.7286L31.9342 18.7224L32.0195 18.7255L32.1016 18.7348L32.1776 18.7487L32.2473 18.7689L32.3155 18.7937L32.3744 18.82L32.4318 18.851L32.4845 18.8836L32.5325 18.9192L32.5759 18.9564L32.6131 18.9952L32.6488 19.0324L32.6782 19.0711L32.7046 19.1083L32.7278 19.144L32.7449 19.1796L32.951 18.0295H33.7462L33.0843 21.8581Z" fill="white"/>
<path d="M33.0843 21.8581H32.2737L32.3326 21.5326V21.5032L32.2861 21.5621L32.2365 21.6148L32.1869 21.6613L32.1342 21.7031L32.0815 21.7403L32.0288 21.7729L31.9761 21.7992L31.9203 21.8256L31.8645 21.8457L31.8086 21.8612L31.7528 21.8752L31.6939 21.8845L31.6366 21.8938L31.5808 21.8984L31.5219 21.9015H31.463L31.3111 21.8907L31.17 21.8581L31.0414 21.8085L30.9251 21.7403L30.8197 21.6566L30.7252 21.5559L30.643 21.4474L30.5733 21.3249L30.5143 21.1932L30.4678 21.0552L30.4353 20.9126L30.412 20.7638L30.4043 20.6134L30.4058 20.4615L30.4213 20.3127L30.4477 20.1624L30.4911 19.9903L30.5438 19.826L30.6058 19.6772L30.6787 19.5362L30.7546 19.4044L30.843 19.2881L30.9329 19.1827L31.0305 19.0851L31.1328 19.0014L31.2413 18.927L31.3514 18.8634L31.463 18.8138L31.5808 18.772L31.697 18.7456L31.8148 18.7286L31.9342 18.7224L32.0195 18.7255L32.1016 18.7348L32.1776 18.7487L32.2473 18.7689L32.3155 18.7937L32.3744 18.82L32.4318 18.851L32.4845 18.8836L32.5325 18.9192L32.5759 18.9564L32.6131 18.9952L32.6488 19.0324L32.6782 19.0711L32.7046 19.1083L32.7278 19.144L32.7449 19.1796L32.951 18.0295H33.7462L33.0843 21.8581Z" stroke="white" stroke-width="0.216" stroke-miterlimit="2.6131"/>
<path fill-rule="evenodd" clip-rule="evenodd" d="M31.759 21.1498L31.8411 21.1436L31.9171 21.1265L31.9869 21.1048L32.0551 21.0738L32.1155 21.0382L32.1744 20.9948L32.2302 20.9452L32.2798 20.8925L32.3232 20.8336L32.3651 20.7684L32.4023 20.7018L32.4348 20.632L32.4643 20.5576L32.4875 20.4817L32.5077 20.4026L32.5232 20.3236L32.5371 20.2414L32.5464 20.1577V20.0787L32.5433 19.9965L32.534 19.9206L32.5232 19.8462L32.503 19.7764L32.4798 19.7098L32.4503 19.6509L32.4147 19.5951L32.3759 19.5486L32.3325 19.5067L32.2829 19.4726L32.2302 19.4494L32.1744 19.4339L32.1124 19.4277L32.0334 19.4339L31.9605 19.4463L31.8938 19.4695L31.8256 19.499L31.7683 19.5362L31.7094 19.5827L31.6598 19.6338L31.6102 19.6881L31.5652 19.7532L31.5249 19.8198L31.4862 19.8911L31.4552 19.9671L31.4257 20.0461L31.4025 20.1252L31.3777 20.2104L31.3606 20.2941L31.3467 20.4228L31.3513 20.5638L31.373 20.708L31.4102 20.8444L31.4691 20.9653L31.5451 21.0614L31.6412 21.1265L31.759 21.1498Z" fill="#FCB331"/>
<path fill-rule="evenodd" clip-rule="evenodd" d="M13.7809 21.2087L13.6631 21.8581H12.9253L12.947 21.7372L12.9609 21.6303L12.9733 21.5481L12.9842 21.5032L12.9439 21.5512L12.8974 21.5977L12.8416 21.6411L12.7796 21.683L12.7098 21.7233L12.6354 21.7589L12.5595 21.793L12.4804 21.8225L12.3967 21.8488L12.3115 21.869L12.2262 21.8876L12.1379 21.8984L12.0542 21.9046L11.9689 21.9077L11.8868 21.8984L11.8077 21.8876L11.7054 21.8612L11.6108 21.8318L11.5302 21.793L11.4558 21.7496L11.3923 21.7031L11.3334 21.6504L11.2869 21.5946L11.245 21.5357L11.2109 21.4737L11.1815 21.4102L11.1582 21.3451L11.1396 21.2815L11.1288 21.2133L11.1195 21.1467L11.1133 21.0816V21.018L11.1226 20.9033L11.1396 20.7948L11.1691 20.6925L11.2078 20.5933L11.2543 20.5003L11.307 20.415L11.369 20.3329L11.4388 20.26L11.5116 20.1918L11.5938 20.1314L11.6791 20.0756L11.7674 20.0291L11.8604 19.9872L11.9565 19.9547L12.0573 19.9283L12.1596 19.9113H12.1642L12.1797 19.9082L12.1999 19.9051L12.2324 19.902L12.2681 19.8973L12.3084 19.8942L12.3518 19.888L12.4014 19.8818L12.4525 19.8756L12.5021 19.871L12.5548 19.8679L12.6013 19.8617L12.6478 19.8586L12.6912 19.8555L12.7331 19.8524H12.7656H12.8323L12.902 19.8555L12.9671 19.8586H13.0307L13.0834 19.8617L13.1253 19.8648L13.1547 19.8679H13.1625L13.1687 19.8462L13.1873 19.7935L13.2012 19.733L13.2074 19.6772L13.195 19.6121L13.1687 19.5548L13.1346 19.5021L13.0865 19.4571L13.0307 19.4199L12.9702 19.3936L12.8989 19.375L12.823 19.3703L12.7408 19.3672L12.654 19.3641H12.5626L12.4696 19.3672L12.3735 19.3719L12.2789 19.3812L12.1859 19.3905L12.0945 19.4013L12.0061 19.4137L11.9224 19.4277L11.8465 19.4432L11.7752 19.4571L11.7116 19.4757L11.6589 19.4928L11.617 19.5129L11.5845 19.53L11.7938 18.8247L11.8573 18.7983L11.9224 18.7751L11.9922 18.7549L12.0619 18.741L12.1332 18.7255L12.2092 18.7146L12.2851 18.7022L12.3642 18.696L12.4463 18.6898L12.53 18.6883L12.6184 18.6852H12.7098H12.8028H12.8989L13.0028 18.6883L13.1051 18.6898L13.1873 18.696L13.2741 18.7115L13.3655 18.7317L13.4585 18.758L13.55 18.7937L13.6368 18.834L13.7251 18.8836L13.8073 18.9394L13.8801 19.0045L13.9452 19.0742L14.0026 19.1533L14.0475 19.2401L14.077 19.3347L14.094 19.4339V19.5455L14.077 19.6617L13.7809 21.2087Z" fill="white"/>
<path d="M13.7809 21.2087L13.6631 21.8581H12.9253L12.947 21.7372L12.9609 21.6303L12.9733 21.5481L12.9842 21.5032L12.9439 21.5512L12.8974 21.5977L12.8416 21.6411L12.7796 21.683L12.7098 21.7233L12.6354 21.7589L12.5595 21.793L12.4804 21.8225L12.3967 21.8488L12.3115 21.869L12.2262 21.8876L12.1379 21.8984L12.0542 21.9046L11.9689 21.9077L11.8868 21.8984L11.8077 21.8876L11.7054 21.8612L11.6108 21.8318L11.5302 21.793L11.4558 21.7496L11.3923 21.7031L11.3334 21.6504L11.2869 21.5946L11.245 21.5357L11.2109 21.4737L11.1815 21.4102L11.1582 21.3451L11.1396 21.2815L11.1288 21.2133L11.1195 21.1467L11.1133 21.0816V21.018L11.1226 20.9033L11.1396 20.7948L11.1691 20.6925L11.2078 20.5933L11.2543 20.5003L11.307 20.415L11.369 20.3329L11.4388 20.26L11.5116 20.1918L11.5938 20.1314L11.6791 20.0756L11.7674 20.0291L11.8604 19.9872L11.9565 19.9547L12.0573 19.9283L12.1596 19.9113H12.1642L12.1797 19.9082L12.1999 19.9051L12.2324 19.902L12.2681 19.8973L12.3084 19.8942L12.3518 19.888L12.4014 19.8818L12.4525 19.8756L12.5021 19.871L12.5548 19.8679L12.6013 19.8617L12.6478 19.8586L12.6912 19.8555L12.7331 19.8524H12.7656H12.8323L12.902 19.8555L12.9671 19.8586H13.0307L13.0834 19.8617L13.1253 19.8648L13.1547 19.8679H13.1625L13.1687 19.8462L13.1873 19.7935L13.2012 19.733L13.2074 19.6772L13.195 19.6121L13.1687 19.5548L13.1346 19.5021L13.0865 19.4571L13.0307 19.4199L12.9702 19.3936L12.8989 19.375L12.823 19.3703L12.7408 19.3672L12.654 19.3641H12.5626L12.4696 19.3672L12.3735 19.3719L12.2789 19.3812L12.1859 19.3905L12.0945 19.4013L12.0061 19.4137L11.9224 19.4277L11.8465 19.4432L11.7752 19.4571L11.7116 19.4757L11.6589 19.4928L11.617 19.5129L11.5845 19.53L11.7938 18.8247L11.8573 18.7983L11.9224 18.7751L11.9922 18.7549L12.0619 18.741L12.1332 18.7255L12.2092 18.7146L12.2851 18.7022L12.3642 18.696L12.4463 18.6898L12.53 18.6883L12.6184 18.6852H12.7098H12.8028H12.8989L13.0028 18.6883L13.1051 18.6898L13.1873 18.696L13.2741 18.7115L13.3655 18.7317L13.4585 18.758L13.55 18.7937L13.6368 18.834L13.7251 18.8836L13.8073 18.9394L13.8801 19.0045L13.9452 19.0742L14.0026 19.1533L14.0475 19.2401L14.077 19.3347L14.094 19.4339V19.5455L14.077 19.6617L13.7809 21.2087Z" stroke="white" stroke-width="0.216" stroke-miterlimit="2.6131"/>
<path fill-rule="evenodd" clip-rule="evenodd" d="M13.0754 20.4445L13.0723 20.429L13.0598 20.415L13.0428 20.4057L13.0133 20.3995L12.9808 20.3949L12.9436 20.3918H12.8986H12.8552L12.8087 20.3949L12.7591 20.3995L12.7126 20.4057L12.6646 20.4119L12.6212 20.4181L12.5809 20.4259L12.5452 20.4352L12.5127 20.4445L12.4925 20.4491L12.4693 20.4584L12.4367 20.4708L12.4042 20.4848L12.367 20.5018L12.3282 20.5235L12.2879 20.5437L12.2492 20.5669L12.2089 20.5964L12.1701 20.6259L12.136 20.66L12.1035 20.6956L12.074 20.7344L12.0539 20.7747L12.0353 20.8212L12.0275 20.8692L12.0244 20.9684L12.0384 21.0475L12.0678 21.1048L12.1066 21.1498L12.15 21.1792L12.1996 21.1963L12.2461 21.2056L12.2941 21.2087L12.3809 21.2056L12.46 21.1963L12.5359 21.1854L12.6041 21.1668L12.6615 21.1467L12.7173 21.1203L12.7669 21.094L12.8118 21.0614L12.849 21.032L12.8847 20.9979L12.9141 20.9653L12.9374 20.9297L12.9575 20.8956L12.9761 20.8599L12.9901 20.8274L12.9994 20.7948L13.0226 20.7111L13.0428 20.6135L13.0598 20.5204L13.0754 20.4445Z" fill="#ED1B2E"/>
<path fill-rule="evenodd" clip-rule="evenodd" d="M7.62135 21.8581H6.82617L7.4896 18.014H8.87535L9.0071 20.2941L9.96349 18.014H11.4097L10.7308 21.8581H9.93404L10.4378 18.9859H10.4053L9.21481 21.8581H8.31578L8.30958 21.7372L8.28943 21.4195L8.26307 20.9653L8.23362 20.4445L8.20417 19.9206L8.17782 19.4602L8.15767 19.1269L8.15147 18.9859H8.14217H8.12512H8.10807L7.62135 21.8581Z" fill="white"/>
<path d="M7.62135 21.8581H6.82617L7.4896 18.014H8.87535L9.0071 20.2941L9.96349 18.014H11.4097L10.7308 21.8581H9.93404L10.4378 18.9859H10.4053L9.21481 21.8581H8.31578L8.30958 21.7372L8.28943 21.4195L8.26307 20.9653L8.23362 20.4445L8.20417 19.9206L8.17782 19.4602L8.15767 19.1269L8.15147 18.9859H8.14217H8.12512H8.10807L7.62135 21.8581Z" stroke="white" stroke-width="0.216" stroke-miterlimit="2.6131"/>
<path fill-rule="evenodd" clip-rule="evenodd" d="M28.3104 21.2087L28.191 21.8581H27.4563L27.4609 21.7372L27.464 21.6318V21.5528L27.4702 21.5187L27.433 21.5621L27.3881 21.6055L27.3354 21.6473L27.2765 21.6876L27.216 21.7264L27.1447 21.762L27.0719 21.7961L26.999 21.8256L26.92 21.8488L26.8378 21.8721L26.7556 21.8876L26.6735 21.8984L26.5898 21.9046L26.5076 21.9077L26.4286 21.8984L26.3495 21.8876L26.2441 21.8612L26.1496 21.8318L26.0674 21.793L25.9915 21.7496L25.9279 21.7031L25.8721 21.6504L25.8256 21.5946L25.7838 21.5357L25.7497 21.4737L25.7233 21.4102L25.7001 21.3451L25.6846 21.2815L25.6737 21.2133L25.6644 21.1467L25.6582 21.0816V21.018L25.6644 20.9033L25.6815 20.7948L25.7078 20.6925L25.7466 20.5933L25.79 20.5003L25.8458 20.415L25.9078 20.3329L25.9744 20.26L26.0504 20.1918L26.1294 20.1314L26.2147 20.0756L26.3046 20.0291L26.396 19.9872L26.4921 19.9547L26.5898 19.9283L26.689 19.9113H26.6952L26.7091 19.9082L26.7293 19.9051L26.7587 19.902L26.7975 19.8973L26.8378 19.8942L26.8828 19.888L26.9293 19.8818L26.9789 19.8756L27.0316 19.871L27.0812 19.8679L27.1308 19.8617L27.1773 19.8586L27.2191 19.8555L27.2594 19.8524H27.292H27.3617L27.433 19.8555L27.4997 19.8586H27.5648L27.619 19.8617L27.6671 19.8648L27.6934 19.8679H27.7043L27.7105 19.8462L27.7198 19.7935L27.7275 19.733L27.7337 19.6772L27.7229 19.6121L27.6981 19.5548L27.6609 19.5021L27.6175 19.4571L27.5648 19.4199L27.5028 19.3936L27.4377 19.375L27.3679 19.3703L27.2858 19.3672L27.1974 19.3641H27.1075L27.013 19.3672L26.9169 19.3719L26.8238 19.3812L26.7293 19.3905L26.6394 19.4013L26.551 19.4137L26.4658 19.4277L26.3898 19.4432L26.3201 19.4571L26.255 19.4757L26.2023 19.4928L26.162 19.5129L26.1294 19.53L26.334 18.8247L26.3991 18.7983L26.4658 18.7751L26.534 18.7549L26.6037 18.741L26.6766 18.7255L26.751 18.7146L26.8269 18.7022L26.906 18.696L26.9882 18.6898L27.0719 18.6883L27.1571 18.6852H27.2486H27.3385H27.433L27.5322 18.6883L27.6314 18.6898L27.7136 18.696L27.8019 18.7115L27.8918 18.7317L27.9864 18.758L28.0763 18.7937L28.1678 18.834L28.2546 18.8836L28.3367 18.9394L28.4096 19.0045L28.4778 19.0742L28.5367 19.1533L28.5801 19.2401L28.6126 19.3347L28.6328 19.4339V19.5455L28.6173 19.6617L28.3104 21.2087Z" fill="white"/>
<path fill-rule="evenodd" clip-rule="evenodd" d="M28.1905 21.8783L28.2075 21.8612L28.3269 21.2118L28.2928 21.2056L28.1719 21.855L28.1905 21.838V21.8783L28.2044 21.8752L28.2075 21.8612L28.1905 21.8783Z" fill="white"/>
<path fill-rule="evenodd" clip-rule="evenodd" d="M27.4367 21.8581L27.4553 21.8783H28.19V21.838H27.4553L27.4723 21.8581H27.4367L27.4336 21.8783H27.4553L27.4367 21.8581Z" fill="white"/>
<path fill-rule="evenodd" clip-rule="evenodd" d="M27.4856 21.5295L27.4592 21.5063L27.4468 21.5528L27.4437 21.6318V21.7372L27.4375 21.8581H27.4732L27.4794 21.7372L27.4856 21.6318L27.4825 21.5528V21.5295L27.4561 21.5063L27.4856 21.5295Z" fill="white"/>
<path fill-rule="evenodd" clip-rule="evenodd" d="M26.3457 21.9046L26.4279 21.917L26.5069 21.9248L26.5891 21.9217L26.6728 21.917L26.758 21.9046L26.8402 21.8907L26.9223 21.8674L27.0045 21.8426L27.0773 21.8147L27.1533 21.7791L27.223 21.7434L27.285 21.7031L27.347 21.6613L27.3997 21.621L27.4462 21.5745L27.485 21.5295L27.4555 21.5063L27.4168 21.5512L27.3765 21.5915L27.3238 21.6318L27.268 21.6737L27.206 21.7093L27.1362 21.7434L27.0649 21.7791L26.9921 21.8085L26.9161 21.8318L26.834 21.855L26.7518 21.869L26.6728 21.8814L26.5891 21.8876L26.5069 21.8907L26.4279 21.8814L26.3519 21.869L26.3457 21.9046Z" fill="white"/>
<path fill-rule="evenodd" clip-rule="evenodd" d="M25.6377 21.018L25.6408 21.0816L25.647 21.1467L25.6547 21.2164L25.6671 21.2846L25.6811 21.3482L25.7043 21.4164L25.7307 21.483L25.7694 21.545L25.8098 21.6055L25.8578 21.6613L25.9152 21.7171L25.9834 21.7636L26.0593 21.8116L26.1446 21.8488L26.2407 21.8783L26.3461 21.9046L26.3523 21.869L26.2469 21.8426L26.1554 21.8147L26.0764 21.776L26.0004 21.7357L25.9384 21.6876L25.8857 21.638L25.8392 21.5822L25.7989 21.5264L25.7663 21.466L25.74 21.404L25.7167 21.3435L25.7012 21.2784L25.6904 21.2118L25.6811 21.1467L25.6749 21.0816L25.678 21.018H25.6377Z" fill="white"/>
<path fill-rule="evenodd" clip-rule="evenodd" d="M26.6886 19.8942L26.5863 19.9113L26.4871 19.9376L26.3895 19.9702L26.2965 20.0105L26.205 20.057L26.1182 20.1159L26.0392 20.1779L25.9617 20.2476L25.8919 20.3205L25.8299 20.4026L25.7726 20.491L25.7276 20.5871L25.6904 20.6863L25.664 20.7917L25.647 20.9033L25.6377 21.018H25.678L25.6811 20.9033L25.6997 20.7979L25.726 20.6987L25.7633 20.5995L25.8067 20.508L25.8594 20.4259L25.9214 20.3437L25.9865 20.2709L26.0624 20.2073L26.1415 20.1453L26.2236 20.0926L26.3135 20.0461L26.4019 20.0043L26.498 19.9733L26.5925 19.9469L26.6886 19.9283V19.8942Z" fill="white"/>
<path fill-rule="evenodd" clip-rule="evenodd" d="M27.2915 19.8322H27.2589L27.2186 19.8384L27.1767 19.8415L27.1302 19.8446L27.0806 19.8493L27.031 19.8524L26.9783 19.8586L26.9287 19.8648L26.8822 19.871L26.8373 19.8756L26.797 19.8787L26.7582 19.8849L26.7288 19.888L26.7055 19.8911L26.6947 19.8942H26.6885V19.9283H26.6947L26.7117 19.9252L26.7288 19.9237L26.7582 19.9206L26.797 19.9144L26.8373 19.9113L26.8822 19.9051L26.9287 19.8989L26.9783 19.8942L27.031 19.888L27.0806 19.8849L27.1302 19.8787L27.1767 19.8756L27.2186 19.8725H27.2589H27.2915V19.8322Z" fill="white"/>
<path fill-rule="evenodd" clip-rule="evenodd" d="M27.6863 19.8648L27.7033 19.8493H27.6925L27.6661 19.8462L27.6181 19.8446L27.5638 19.8384H27.4987H27.4321L27.3608 19.8322H27.291V19.8725H27.3608H27.4321L27.4987 19.8787H27.5638H27.6181L27.6661 19.8818L27.6925 19.8849H27.7033L27.7219 19.871L27.7033 19.8849L27.7188 19.888L27.7219 19.871L27.6863 19.8648Z" fill="white"/>
<path fill-rule="evenodd" clip-rule="evenodd" d="M27.716 19.6772H27.7129L27.7098 19.733L27.7005 19.7919L27.6927 19.8446L27.6865 19.8648L27.7222 19.871L27.7268 19.8493L27.7361 19.7966L27.7454 19.733L27.7532 19.6772H27.7501H27.716Z" fill="white"/>
<path fill-rule="evenodd" clip-rule="evenodd" d="M27.3682 19.3874V19.3905L27.4348 19.3936L27.4968 19.4106L27.5557 19.437L27.6053 19.4726L27.6456 19.5129L27.6813 19.5625L27.7045 19.6152L27.7169 19.6772H27.751L27.7402 19.609L27.7169 19.5455L27.6751 19.4897L27.6286 19.4432L27.5728 19.4013L27.5092 19.375L27.441 19.3579L27.3682 19.3486V19.3517V19.3874Z" fill="white"/>
<path fill-rule="evenodd" clip-rule="evenodd" d="M26.1123 19.5284L26.1418 19.5455L26.1712 19.53L26.2084 19.5098L26.258 19.4928L26.3231 19.4757L26.3929 19.4602L26.4688 19.4463L26.5541 19.4308L26.6393 19.4199L26.7292 19.4075L26.8238 19.3982L26.9168 19.3905L27.0129 19.3843H27.1074H27.1973H27.2857L27.3678 19.3874V19.3517L27.2857 19.3486L27.1973 19.344H27.1074L27.0129 19.3486L26.9168 19.3548L26.8238 19.3641L26.7292 19.3719L26.6393 19.3843L26.5479 19.3967L26.4626 19.4106L26.3867 19.4246L26.3169 19.4401L26.2518 19.4571L26.1976 19.4757L26.1526 19.4959L26.1185 19.516L26.1464 19.5331L26.1123 19.5284Z" fill="white"/>
<path fill-rule="evenodd" clip-rule="evenodd" d="M26.3293 18.8076L26.3169 18.8216L26.1123 19.5284L26.1464 19.5331L26.3526 18.8278L26.3402 18.8433L26.3293 18.8076L26.32 18.8107L26.3169 18.8216L26.3293 18.8076Z" fill="white"/>
<path fill-rule="evenodd" clip-rule="evenodd" d="M27.6312 18.6728L27.532 18.6666L27.4327 18.6635H27.3382H27.2483H27.1568L27.0716 18.6697L26.9879 18.6728L26.9057 18.679L26.8267 18.6852L26.7476 18.696L26.6732 18.7084L26.6004 18.7224L26.5306 18.7379L26.4609 18.758L26.3927 18.7813L26.3291 18.8076L26.34 18.8433L26.4051 18.8169L26.4717 18.7937L26.5368 18.772L26.6066 18.758L26.6794 18.7425L26.7523 18.7317L26.8267 18.7193L26.9057 18.7146L26.9879 18.7084L27.0716 18.7053H27.1568H27.2483H27.3382H27.4327L27.532 18.7084H27.6312V18.6728Z" fill="white"/>
<path fill-rule="evenodd" clip-rule="evenodd" d="M28.6353 19.6648L28.6493 19.5455V19.4339L28.6291 19.3315L28.5965 19.2354L28.55 19.144L28.4911 19.0618L28.4214 18.989L28.3485 18.9254L28.2633 18.8696L28.1749 18.8169L28.0819 18.7751L27.9905 18.741L27.8944 18.7146L27.8029 18.6929L27.713 18.679L27.6309 18.6728V18.7084L27.713 18.7146L27.7983 18.7286L27.8882 18.7487L27.9796 18.7751L28.0695 18.8107L28.1579 18.851L28.2462 18.8991L28.3253 18.9533L28.3981 19.0184L28.4617 19.0851L28.5206 19.161L28.5624 19.2463L28.5934 19.3377L28.6151 19.4339V19.5455L28.5996 19.6602L28.6353 19.6648Z" fill="white"/>
<path fill-rule="evenodd" clip-rule="evenodd" d="M28.3271 21.2118L28.6355 19.6648L28.5999 19.6602L28.293 21.2056L28.3271 21.2118Z" fill="white"/>
<path fill-rule="evenodd" clip-rule="evenodd" d="M27.6013 20.4445L27.5951 20.4259L27.5842 20.4119L27.5641 20.4026L27.5346 20.3949L27.5021 20.3918L27.4633 20.3887H27.4199L27.3765 20.3918L27.33 20.3964L27.282 20.4026L27.2355 20.4088L27.1921 20.415L27.1471 20.4228L27.1099 20.429L27.0712 20.4383L27.0417 20.4445L27.0215 20.4476L26.9983 20.4553L26.9688 20.4646L26.9363 20.4755L26.8991 20.4941L26.8634 20.5111L26.8231 20.5313L26.7844 20.5576L26.7472 20.584L26.7084 20.6165L26.6759 20.6491L26.6449 20.6863L26.6185 20.7282L26.5968 20.7716L26.5798 20.8181L26.5705 20.8692L26.5674 20.9684L26.5829 21.0475L26.6061 21.1048L26.6418 21.1498L26.6852 21.1792L26.7348 21.1963L26.7844 21.2056L26.834 21.2087L26.9223 21.2056L27.0045 21.1963L27.0805 21.1823L27.1471 21.1606L27.2122 21.1374L27.268 21.111L27.3207 21.0816L27.3672 21.0475L27.4075 21.0149L27.4432 20.9762L27.4757 20.9421L27.5021 20.9033L27.5222 20.8692L27.5377 20.8336L27.5486 20.7979L27.5579 20.7654L27.5687 20.6847L27.5842 20.5995L27.5951 20.5173L27.6013 20.4445Z" fill="#FCB331"/>
<path fill-rule="evenodd" clip-rule="evenodd" d="M33.6328 21.4567L33.6375 21.39L33.6623 21.311L33.7026 21.2397L33.7522 21.1792L33.8142 21.1296L33.8839 21.094L33.9599 21.0707L34.042 21.0614L34.1242 21.0707L34.2001 21.094L34.2699 21.1296L34.3319 21.1792L34.3815 21.2397L34.4233 21.311L34.4466 21.39L34.4512 21.4567H34.3644L34.3613 21.404L34.3443 21.3404L34.3148 21.2815L34.2761 21.2319L34.2296 21.1901L34.1738 21.1606L34.1102 21.1405L34.042 21.1343L33.9754 21.1405L33.9103 21.1606L33.8545 21.1901L33.808 21.2319L33.7692 21.2815L33.7413 21.3404L33.7227 21.404L33.7165 21.4567H33.6328Z" fill="white"/>
<path fill-rule="evenodd" clip-rule="evenodd" d="M33.8965 21.4567V21.2815H34.0577L34.0918 21.2846L34.1243 21.2908L34.1476 21.2986L34.1677 21.311L34.1832 21.328L34.1941 21.3451L34.2003 21.3668L34.2034 21.3869L34.2003 21.4133L34.1941 21.4334L34.1863 21.4505L34.1801 21.4567H34.0577L34.0685 21.4536L34.0887 21.4505L34.1073 21.4458L34.1212 21.4396L34.1336 21.4303L34.1383 21.421L34.1445 21.4071V21.3869L34.1414 21.3714L34.1367 21.3606L34.1274 21.3544L34.1181 21.3482L34.1042 21.3451L34.0887 21.3435H34.0747H34.0577H33.9693V21.4567H33.8965Z" fill="white"/>
<path fill-rule="evenodd" clip-rule="evenodd" d="M33.633 21.4567L33.6299 21.4737L33.6376 21.559L33.6624 21.638L33.7027 21.7093L33.7523 21.7667L33.8143 21.8163L33.8841 21.855L33.96 21.8783L34.0422 21.8876L34.1244 21.8783L34.2003 21.855L34.2701 21.8163L34.3321 21.7667L34.3817 21.7093L34.4235 21.638L34.4468 21.559L34.4545 21.4737L34.4514 21.4567H34.3646L34.3677 21.4737L34.3615 21.545L34.3445 21.6086L34.315 21.6644L34.2763 21.714L34.2298 21.7558L34.174 21.7884L34.1104 21.8085L34.0422 21.8147L33.9755 21.8085L33.9104 21.7884L33.8546 21.7558L33.8081 21.714L33.7694 21.6644L33.7415 21.6086L33.7229 21.545L33.7167 21.4737V21.4567H33.633Z" fill="white"/>
<path fill-rule="evenodd" clip-rule="evenodd" d="M33.8965 21.4567V21.6349H33.9693V21.4892H34.0422L34.1305 21.6349H34.1894L34.1011 21.4892H34.1212L34.1414 21.483L34.16 21.4768L34.1739 21.466L34.1801 21.4567H34.0577L34.0422 21.4598H33.9693V21.4567H33.8965Z" fill="white"/>
<path d="M33.6299 21.4737L33.6392 21.3885L33.6624 21.3094L33.7027 21.2397L33.7523 21.1777L33.8143 21.1281L33.8841 21.0924L33.96 21.0692L34.0422 21.0599L34.1244 21.0692L34.2003 21.0924L34.2701 21.1281L34.3321 21.1777L34.3817 21.2397L34.422 21.3094L34.4452 21.3885L34.4545 21.4737L34.4452 21.559L34.422 21.638L34.3817 21.7078L34.3321 21.7667L34.2701 21.8163L34.2003 21.855L34.1244 21.8783L34.0422 21.8876L33.96 21.8783L33.8841 21.855L33.8143 21.8163L33.7523 21.7667L33.7027 21.7078L33.6624 21.638L33.6392 21.559L33.6299 21.4737ZM33.9693 21.6349H33.8965V21.28H34.0577L34.0934 21.2831L34.1259 21.2893L34.1492 21.2986L34.1693 21.311L34.1833 21.328L34.1957 21.3451L34.2019 21.3652L34.205 21.3854L34.2019 21.4117L34.1957 21.4319L34.1864 21.4489L34.174 21.4629L34.16 21.4753L34.143 21.4815L34.1228 21.4877H34.1027L34.191 21.6334H34.1321L34.0437 21.4877H33.9709V21.6349H33.9693ZM34.0422 21.4598L34.0685 21.4536L34.0887 21.4505L34.1058 21.4443L34.1197 21.4381L34.1321 21.4288L34.1383 21.4195L34.1445 21.4055V21.3854L34.1414 21.3714L34.1352 21.359L34.1259 21.3528L34.1166 21.3466L34.1027 21.3435L34.0887 21.3404H34.0747H34.0577H33.9693V21.4582H34.0422V21.4598ZM34.0422 21.8147L34.1089 21.8085L34.174 21.7884L34.2298 21.7558L34.2763 21.7155L34.315 21.6659L34.3445 21.6101L34.3615 21.545L34.3677 21.4753L34.3615 21.4055L34.3445 21.3404L34.315 21.2815L34.2763 21.2319L34.2298 21.1916L34.174 21.1622L34.1089 21.142L34.0422 21.1358L33.9755 21.142L33.9104 21.1622L33.8546 21.1916L33.8081 21.2319L33.7694 21.2815L33.7399 21.3404L33.7229 21.4055L33.7167 21.4753L33.7229 21.545L33.7399 21.6101L33.7694 21.6659L33.8081 21.7155L33.8546 21.7558L33.9104 21.7884L33.9755 21.8085L34.0422 21.8147Z" stroke="white" stroke-width="0.216" stroke-miterlimit="2.6131"/>
<path fill-rule="evenodd" clip-rule="evenodd" d="M28.5303 21.8581H29.3549L29.651 20.1918L29.6634 20.1283L29.6804 20.0632L29.6975 19.9996L29.7207 19.9345L29.7502 19.871L29.7858 19.809L29.8246 19.7501L29.8711 19.6943L29.9238 19.6447L29.9827 19.5982L30.0493 19.5548L30.1253 19.5191L30.2105 19.4897L30.3035 19.4664L30.4058 19.4494L30.5205 19.4432H30.5608H30.5856H30.5934L30.7251 18.6898L30.643 18.696L30.5639 18.7053L30.4911 18.7193L30.4213 18.741L30.3562 18.7642L30.2958 18.7937L30.2369 18.8247L30.1811 18.8603L30.1284 18.9006L30.0788 18.9425L30.0323 18.989L29.9842 19.0355L29.9408 19.0851L29.8974 19.1409L29.8525 19.1936L29.8122 19.2525L29.9005 18.7224H29.0774L28.5303 21.8581Z" fill="white"/>
<path d="M28.5303 21.8581H29.3549L29.651 20.1918L29.6634 20.1283L29.6804 20.0632L29.6975 19.9996L29.7207 19.9345L29.7502 19.871L29.7858 19.809L29.8246 19.7501L29.8711 19.6943L29.9238 19.6447L29.9827 19.5982L30.0493 19.5548L30.1253 19.5191L30.2105 19.4897L30.3035 19.4664L30.4058 19.4494L30.5205 19.4432H30.5608H30.5856H30.5934L30.7251 18.6898L30.643 18.696L30.5639 18.7053L30.4911 18.7193L30.4213 18.741L30.3562 18.7642L30.2958 18.7937L30.2369 18.8247L30.1811 18.8603L30.1284 18.9006L30.0788 18.9425L30.0323 18.989L29.9842 19.0355L29.9408 19.0851L29.8974 19.1409L29.8525 19.1936L29.8122 19.2525L29.9005 18.7224H29.0774L28.5303 21.8581Z" stroke="white" stroke-width="0.216" stroke-miterlimit="2.6131"/>
<path fill-rule="evenodd" clip-rule="evenodd" d="M20.7783 21.8581H21.603H21.6185L21.899 20.1918L21.9114 20.1283L21.9254 20.0663L21.9409 20.0043L21.961 19.9469L21.9843 19.888L22.0137 19.8322L22.0478 19.7795L22.0897 19.7299L22.1362 19.6865L22.1889 19.6416L22.254 19.6075L22.3237 19.5749L22.4059 19.5486L22.4958 19.5253L22.5965 19.5098L22.7097 19.5021H22.719L22.7298 19.5036L22.7453 19.5067H22.7593L22.7748 19.5098L22.7857 19.5129L22.795 19.516H22.7981L22.8012 19.5036L22.8089 19.4695L22.8213 19.4168L22.8353 19.3517L22.857 19.2757L22.8771 19.1936L22.9035 19.1114L22.9298 19.0293L22.9531 18.975L22.9825 18.9192L23.012 18.8634L23.0414 18.8138L23.0678 18.7689L23.0879 18.7348L23.1019 18.7146L23.1081 18.7053H23.105L23.0941 18.7022L23.0786 18.6991L23.0585 18.696H23.0383L23.0151 18.6929L22.9934 18.6898H22.9732L22.8833 18.696L22.8012 18.7053L22.7252 18.7193L22.6539 18.7379L22.5872 18.7611L22.5252 18.7906L22.4694 18.82L22.4167 18.8541L22.3671 18.8929L22.3206 18.9363L22.2772 18.9797L22.2323 19.0293L22.1889 19.0804L22.1486 19.1347L22.1036 19.1936L22.0602 19.2525L22.1656 18.7224H21.3255L20.7783 21.8581Z" fill="white"/>
<path d="M20.7783 21.8581H21.603H21.6185L21.899 20.1918L21.9114 20.1283L21.9254 20.0663L21.9409 20.0043L21.961 19.9469L21.9843 19.888L22.0137 19.8322L22.0478 19.7795L22.0897 19.7299L22.1362 19.6865L22.1889 19.6416L22.254 19.6075L22.3237 19.5749L22.4059 19.5486L22.4958 19.5253L22.5965 19.5098L22.7097 19.5021H22.719L22.7298 19.5036L22.7453 19.5067H22.7593L22.7748 19.5098L22.7857 19.5129L22.795 19.516H22.7981L22.8012 19.5036L22.8089 19.4695L22.8213 19.4168L22.8353 19.3517L22.857 19.2757L22.8771 19.1936L22.9035 19.1114L22.9298 19.0293L22.9531 18.975L22.9825 18.9192L23.012 18.8634L23.0414 18.8138L23.0678 18.7689L23.0879 18.7348L23.1019 18.7146L23.1081 18.7053H23.105L23.0941 18.7022L23.0786 18.6991L23.0585 18.696H23.0383L23.0151 18.6929L22.9934 18.6898H22.9732L22.8833 18.696L22.8012 18.7053L22.7252 18.7193L22.6539 18.7379L22.5872 18.7611L22.5252 18.7906L22.4694 18.82L22.4167 18.8541L22.3671 18.8929L22.3206 18.9363L22.2772 18.9797L22.2323 19.0293L22.1889 19.0804L22.1486 19.1347L22.1036 19.1936L22.0602 19.2525L22.1656 18.7224H21.3255L20.7783 21.8581Z" stroke="white" stroke-width="0.216" stroke-miterlimit="2.6131"/>
</g>
</g>
<defs>
<filter id="filter0_d_0_1" x="-34" y="-33" width="399" height="105" filterUnits="userSpaceOnUse" color-interpolation-filters="sRGB">
<feFlood flood-opacity="0" result="BackgroundImageFix"/>
<feColorMatrix in="SourceAlpha" type="matrix" values="0 0 0 0 0 0 0 0 0 0 0 0 0 0 0 0 0 0 127 0" result="hardAlpha"/>
<feOffset/>
<feGaussianBlur stdDeviation="10"/>
<feComposite in2="hardAlpha" operator="out"/>
<feColorMatrix type="matrix" values="0 0 0 0 0.804167 0 0 0 0 0.804167 0 0 0 0 0.804167 0 0 0 0.2 0"/>
<feBlend mode="normal" in2="BackgroundImageFix" result="effect1_dropShadow_0_1"/>
<feBlend mode="normal" in="SourceGraphic" in2="effect1_dropShadow_0_1" result="shape"/>
</filter>
<clipPath id="clip0_0_1">
<rect x="-42" y="-426" width="414" height="896" rx="40" fill="white"/>
</clipPath>
<clipPath id="clip1_0_1">
<rect width="29" height="17.3575" fill="white" transform="translate(6 11)"/>
</clipPath>
</defs>
</svg>
