<svg width="40" height="40" viewBox="0 0 40 40" fill="none" xmlns="http://www.w3.org/2000/svg">
<rect width="40" height="40" fill="#E5E5E5"/>
<g clip-path="url(#clip0_0_1)">
<rect x="-42" y="-511" width="414" height="896" rx="40" fill="white"/>
<g filter="url(#filter0_d_0_1)">
<rect x="-14" y="70" width="359" height="65" rx="15" fill="white"/>
</g>
<g filter="url(#filter1_d_0_1)">
<rect x="-14" y="-13" width="359" height="65" rx="15" fill="white"/>
</g>
<circle cx="20" cy="20" r="20" fill="#F5F5F5"/>
<g clip-path="url(#clip1_0_1)">
<path d="M28.2809 15.0591C28.1468 14.9801 27.9818 14.9746 27.8428 15.0444C27.7039 15.1144 27.61 15.2501 27.5934 15.4047C27.5769 15.555 27.5513 15.7053 27.5192 15.863C26.6218 19.9358 24.8196 21.9167 22.0082 21.9167H17.8832C17.6657 21.9171 17.4784 22.0703 17.4349 22.2833L16.0599 28.7284L15.8143 30.3693C15.673 31.1154 16.1634 31.8348 16.9095 31.9761C16.9918 31.9916 17.0753 31.9996 17.159 32H19.9182C20.5506 32.002 21.102 31.5703 21.2519 30.9559L22.3666 26.5H24.7582C27.5806 26.5 29.5313 24.2496 30.2508 20.1631C30.7258 18.2173 29.94 16.1813 28.2809 15.0591Z" fill="#03A9F4"/>
<path d="M27.4173 11.6335C26.5116 10.6062 25.2118 10.0123 23.8423 10H16.2523C15.1164 9.99394 14.1494 10.825 13.9845 11.9488L11.6278 27.6706C11.5149 28.4215 12.0321 29.1218 12.7831 29.2347C12.8512 29.245 12.9201 29.2501 12.989 29.25H16.509C16.7265 29.2496 16.9138 29.0964 16.9573 28.8834L18.2544 22.8334H22.0127C25.2742 22.8334 27.4293 20.5536 28.4193 16.05C28.4591 15.8705 28.4897 15.6891 28.5109 15.5064C28.7407 14.117 28.3399 12.6975 27.4173 11.6335Z" fill="#283593"/>
</g>
</g>
<defs>
<filter id="filter0_d_0_1" x="-54" y="30" width="439" height="145" filterUnits="userSpaceOnUse" color-interpolation-filters="sRGB">
<feFlood flood-opacity="0" result="BackgroundImageFix"/>
<feColorMatrix in="SourceAlpha" type="matrix" values="0 0 0 0 0 0 0 0 0 0 0 0 0 0 0 0 0 0 127 0" result="hardAlpha"/>
<feOffset/>
<feGaussianBlur stdDeviation="20"/>
<feComposite in2="hardAlpha" operator="out"/>
<feColorMatrix type="matrix" values="0 0 0 0 0.816667 0 0 0 0 0.816667 0 0 0 0 0.816667 0 0 0 0.3 0"/>
<feBlend mode="normal" in2="BackgroundImageFix" result="effect1_dropShadow_0_1"/>
<feBlend mode="normal" in="SourceGraphic" in2="effect1_dropShadow_0_1" result="shape"/>
</filter>
<filter id="filter1_d_0_1" x="-34" y="-33" width="399" height="105" filterUnits="userSpaceOnUse" color-interpolation-filters="sRGB">
<feFlood flood-opacity="0" result="BackgroundImageFix"/>
<feColorMatrix in="SourceAlpha" type="matrix" values="0 0 0 0 0 0 0 0 0 0 0 0 0 0 0 0 0 0 127 0" result="hardAlpha"/>
<feOffset/>
<feGaussianBlur stdDeviation="10"/>
<feComposite in2="hardAlpha" operator="out"/>
<feColorMatrix type="matrix" values="0 0 0 0 0.804167 0 0 0 0 0.804167 0 0 0 0 0.804167 0 0 0 0.2 0"/>
<feBlend mode="normal" in2="BackgroundImageFix" result="effect1_dropShadow_0_1"/>
<feBlend mode="normal" in="SourceGraphic" in2="effect1_dropShadow_0_1" result="shape"/>
</filter>
<clipPath id="clip0_0_1">
<rect x="-42" y="-511" width="414" height="896" rx="40" fill="white"/>
</clipPath>
<clipPath id="clip1_0_1">
<rect width="22" height="22" fill="white" transform="translate(10 10)"/>
</clipPath>
</defs>
</svg>
