<svg width="119" height="28" viewBox="0 0 119 28" fill="none" xmlns="http://www.w3.org/2000/svg">
<path d="M15.6 20.965C15.045 21.01 14.565 21.04 14.16 21.04C11.88 21.04 10.155 20.14 8.76 18.295C10.14 17.35 10.995 15.805 10.995 14.05C11.055 11.215 8.625 8.89 5.85 8.935C3.045 8.89 0.66 11.215 0.72 14.05C0.66 16.855 3.045 19.225 5.85 19.165C6.525 19.165 7.185 19.045 7.8 18.79C9.3 20.905 11.43 22.045 14.01 22.045C14.52 22.045 15.045 22 15.6 21.895V20.965ZM5.865 18.085C3.63 18.085 1.935 16.33 1.935 14.035C1.935 11.74 3.615 10.015 5.85 10.015C8.085 10.015 9.78 11.755 9.78 14.05C9.825 16.285 8.04 18.13 5.865 18.085ZM16.9838 18.025C16.6088 18.085 16.2938 18.115 16.0088 18.115C15.0038 18.115 14.4638 17.755 14.4638 16.72V12.73H16.7438V11.695H14.4638V9.7H13.3088V11.695H12.0788V12.73H13.3088V16.795C13.3088 18.4 14.2538 19.165 15.7688 19.165C16.1138 19.165 16.5188 19.105 16.9838 19V18.025ZM23.8966 11.695L21.4816 17.515L19.0666 11.695H17.8216L20.8516 18.775L20.4616 19.645C20.0866 20.53 19.5766 20.815 18.8116 20.815C18.6016 20.815 18.3016 20.785 17.9266 20.74V21.715C18.3016 21.82 18.6766 21.865 19.0516 21.865C20.1766 21.865 20.9716 21.295 21.5266 20.02L25.1266 11.695H23.8966Z" fill="#727272"/>
<path d="M78.554 8.12L74.432 9.47L74.9 11.144L77.312 10.37V20H79.22V8.12H78.554Z" fill="#3D3D3D"/>
<rect x="37" width="24.3158" height="28" rx="12.1579" fill="#F6F6F6"/>
<line x1="45" y1="15" x2="54" y2="15" stroke="#A5A5A5" stroke-width="2"/>
<rect x="94" width="24.3158" height="28" rx="12.1579" fill="#F6F6F6"/>
<path d="M106.124 19.152H107.72V15.099H111.563V13.671H107.72V9.681H106.124V13.671H102.176V15.099H106.124V19.152Z" fill="#3D3D3D"/>
</svg>
